<?xml version="1.0" encoding="iso-8859-1"?>
<!-- Generator: Adobe Illustrator 19.0.0, SVG Export Plug-In . SVG Version: 6.00 Build 0)  -->
<svg version="1.1" id="Capa_1" xmlns="http://www.w3.org/2000/svg" xmlns:xlink="http://www.w3.org/1999/xlink" x="0px" y="0px"
	 viewBox="0 0 428 428" style="enable-background:new 0 0 428 428;" xml:space="preserve">
<path style="fill:#FDC75B;" d="M417.8,214.6v185.6H233.4V214.6H318H417.8z M351.8,321.8l26.1-25.5l-36.1-5.3l-16.2-32.7L309.5,291
	l-36.1,5.3l26.1,25.5l-6.2,36l32.3-17l32.3,17L351.8,321.8z"/>
<g>
	<polygon style="fill:#ED664C;" points="377.9,296.3 351.8,321.8 358,357.7 325.6,340.8 293.3,357.7 299.5,321.8 273.4,296.3 
		309.5,291 325.6,258.3 341.8,291 	"/>
	<path style="fill:#ED664C;" d="M318,27.8v186.9h-84.6h-38.8h-61V27.8H318z M270.5,120c0-24.7-20-44.8-44.8-44.8s-44.8,20-44.8,44.8
		s20,44.8,44.8,44.8S270.5,144.7,270.5,120z"/>
</g>
<g>
	<path style="fill:#FDC75B;" d="M225.8,75.2c24.7,0,44.8,20,44.8,44.8s-20,44.8-44.8,44.8S181,144.7,181,120S201,75.2,225.8,75.2z"
		/>
	<path style="fill:#FDC75B;" d="M194.6,214.6v185.6H10.2V214.6h123.4H194.6z M156.1,307.7l-26.9-46.9H75.5l-26.9,46.9l26.9,46.9
		h53.7L156.1,307.7z"/>
</g>
<polygon style="fill:#ED664C;" points="129.2,260.9 156.1,307.7 129.2,354.6 75.5,354.6 48.6,307.7 75.5,260.9 "/>
<path d="M75.5,251c-3.6,0-6.9,1.8-8.7,5L40,302.8c-1.8,3.1-1.8,6.8,0,9.9l26.9,47.1c1.8,3.1,5.1,5.2,8.7,5.2h53.7
	c3.6,0,6.9-2.1,8.7-5.2l26.9-47c1.8-3.1,1.8-6.9,0-10l-27-46.8c-1.8-3.1-5.1-5-8.7-5H75.5z M144.5,308l-21.1,37H81.3l-21.1-37
	l21.1-37h42.1L144.5,308z"/>
<path d="M225.8,65.2c-30.2,0-54.8,24.6-54.8,54.8s24.6,54.8,54.8,54.8s54.8-24.6,54.8-54.8C280.5,89.8,256,65.2,225.8,65.2z
	 M225.8,154.8c-19.2,0-34.8-15.6-34.8-34.8s15.6-34.8,34.8-34.8s34.8,15.6,34.8,34.8C260.5,139.2,244.9,154.8,225.8,154.8z"/>
<path d="M417.8,205H328V27.8c0-5.5-4.5-9.8-10-9.8H133.6c-5.5,0-9.6,4.2-9.6,9.8V205H10.2C4.7,205,0,209.1,0,214.6v185.6
	c0,5.5,4.6,9.8,10.2,9.8h184.4c5.5,0,10.4-4.2,10.4-9.8V225h18v175.2c0,5.5,4.9,9.8,10.4,9.8h184.4c5.5,0,10.2-4.2,10.2-9.8V214.6
	C428,209.1,423.4,205,417.8,205z M185,390H20V225h113.6H185V390z M144,205V38h164v167h-74.6H144z M408,390H243V225h165V390z"/>
<path d="M288.7,325.3l-5.3,30.8c-0.6,3.8,0.9,7.5,4,9.8s7.2,2.5,10.5,0.8l27.7-14.5l27.7,14.5c1.5,0.8,3.1,1.1,4.6,1.1
	c2.1,0,4.1-0.6,5.9-1.9c3.1-2.2,4.6-6,4-9.8l-5.3-30.8l22.4-21.8c2.7-2.7,3.7-6.6,2.5-10.2s-4.3-6.3-8.1-6.8l-30.9-4.5l-13.9-28.2
	c-1.7-3.4-5.2-5.7-9-5.7l0,0c-3.8,0-7.3,2.3-9,5.7l-13.8,28.1l-30.9,4.5c-3.8,0.5-6.9,3.2-8.1,6.8s-0.2,7.6,2.5,10.3L288.7,325.3z
	 M310.9,300.9c3.3-0.5,6.1-2.5,7.5-5.5l7.2-14.6l7.2,14.6c1.5,2.9,4.3,5,7.5,5.5l16.1,2.3l-11.7,11.4c-2.4,2.3-3.4,5.6-2.9,8.8
	l2.7,16l-14.4-7.6c-1.5-0.8-3.1-1.1-4.6-1.1s-3.2,0.4-4.6,1.1l-14.4,7.6l2.8-16c0.6-3.2-0.5-6.6-2.9-8.9l-11.7-11.4L310.9,300.9z"/>
<g>
</g>
<g>
</g>
<g>
</g>
<g>
</g>
<g>
</g>
<g>
</g>
<g>
</g>
<g>
</g>
<g>
</g>
<g>
</g>
<g>
</g>
<g>
</g>
<g>
</g>
<g>
</g>
<g>
</g>
</svg>
