<?xml version="1.0" encoding="iso-8859-1"?>
<!-- Generator: Adobe Illustrator 19.0.0, SVG Export Plug-In . SVG Version: 6.00 Build 0)  -->
<svg version="1.1" id="Capa_1" xmlns="http://www.w3.org/2000/svg" xmlns:xlink="http://www.w3.org/1999/xlink" x="0px" y="0px"
	 viewBox="0 0 442 442" style="enable-background:new 0 0 442 442;" xml:space="preserve">
<path style="fill:#ED664C;" d="M395.9,224.1V288c0,7.9-6.8,14.7-14.7,14.7H288H170.2c-8.4,0-14.7-6.8-14.7-14.7v-63.9H395.9z"/>
<rect x="155.5" y="187.5" style="fill:#FDC75B;" width="240.4" height="36.7"/>
<path style="fill:#ED664C;" d="M395.9,163.9v23.6H155.5v-23.6c0-8.4,6.8-14.7,14.7-14.7h117.3h93.8
	C389.6,149.2,395.9,156.1,395.9,163.9z"/>
<path style="fill:#FDC75B;" d="M288,351.4v49.2c0,17.3-14.1,31.4-31.4,31.4H77.5c-17.3,0-31.4-14.1-31.4-31.4v-49.2H288z"/>
<path style="fill:#ED664C;" d="M288,303.8v47.7H46v-284h241.4v81.2v0.5H170.2c-7.9,0-14.7,6.3-14.7,14.7v23.6v36.7V288
	c0,7.9,6.3,14.7,14.7,14.7H288V303.8z"/>
<path style="fill:#FDC75B;" d="M287.5,41.4v26.2H46.1V41.4C46.1,24.1,60.2,10,77.5,10h178.6C273.4,9.9,287.5,24,287.5,41.4z"/>
<path d="M77.5,442h179.1c22.8,0,41.4-18.5,41.4-41.4V313h83.3c13.4,0,24.7-11.6,24.7-25V163.9c0-13.6-11.1-24.9-24.7-24.9H298V41.4
	C298,18.6,278.9,0,256.1,0H77.5C54.7,0,36,18.5,36,41.4v359.3C36,423.5,54.7,442,77.5,442z M386,288c0,2.4-2.4,5-4.7,5H170.2
	c-2.9,0-4.2-2.7-4.2-5v-54h220V288z M386,214H166v-17h220V214z M381.3,159c2.9,0,4.7,2.6,4.7,4.9V177H166v-13.1
	c0-2.9,1.9-4.9,4.2-4.9H381.3z M56,41.4C56,29.6,65.7,20,77.5,20h178.6c11.8,0,21.9,9.5,21.9,21.4V58H56V41.4z M56,78h222v61H170.2
	c-13.6,0-24.2,11.3-24.2,24.9V288c0,13.6,10.6,25,24.2,25H278v28H56V78z M56,361h222v39.6c0,11.8-9.6,21.4-21.4,21.4H77.5
	c-11.8,0-21.5-9.5-21.5-21.4V361z"/>
<path d="M187,271h51.9c5.5,0,10-4.5,10-10s-4.5-10-10-10H187c-5.5,0-10,4.5-10,10S181.4,271,187,271z"/>
<g>
</g>
<g>
</g>
<g>
</g>
<g>
</g>
<g>
</g>
<g>
</g>
<g>
</g>
<g>
</g>
<g>
</g>
<g>
</g>
<g>
</g>
<g>
</g>
<g>
</g>
<g>
</g>
<g>
</g>
</svg>
