<svg height="511pt" viewBox="0 1 511 511.999" width="511pt" xmlns="http://www.w3.org/2000/svg"><path d="m505.335938 256.46875c0 137.242188-111.257813 248.496094-248.5 248.496094-137.242188 0-248.5-111.253906-248.5-248.496094s111.257812-248.5 248.5-248.5c137.242187 0 248.5 111.257812 248.5 248.5zm0 0" fill="#e4eaf8"/><path d="m38.597656 256.46875c0-132.160156 103.171875-240.207031 233.367188-248.027344-5.003906-.300781-10.046875-.472656-15.128906-.472656-137.242188 0-248.5 111.257812-248.5 248.5s111.257812 248.496094 248.5 248.496094c5.082031 0 10.125-.167969 15.128906-.46875-130.195313-7.824219-233.367188-115.867188-233.367188-248.027344zm0 0" fill="#d8dce5"/><path d="m462.988281 256.46875c0 113.851562-92.300781 206.148438-206.152343 206.148438-113.855469 0-206.152344-92.296876-206.152344-206.148438 0-113.855469 92.296875-206.152344 206.152344-206.152344 113.851562 0 206.152343 92.296875 206.152343 206.152344zm0 0" fill="#feca57"/><path d="m88.375 256.46875c0-107.5 82.285156-195.765625 187.304688-205.285156-6.207032-.566406-12.488282-.867188-18.84375-.867188-113.855469 0-206.152344 92.296875-206.152344 206.152344 0 113.851562 92.296875 206.148438 206.152344 206.148438 6.355468 0 12.636718-.300782 18.84375-.863282-105.019532-9.519531-187.304688-97.785156-187.304688-205.285156zm0 0" fill="#f4b537"/><path d="m294.367188 342.109375h-75.0625c-7.078126 0-12.867188 5.792969-12.867188 12.867187v5.09375c0 7.078126 5.789062 12.871094 12.867188 12.871094h75.0625c7.078124 0 12.867187-5.792968 12.867187-12.871094v-5.09375c0-7.074218-5.792969-12.867187-12.867187-12.867187zm0 0" fill="#8ac2ff"/><path d="m294.367188 352.269531h-75.0625c-4.152344 0-7.851563-2-10.207032-5.078125-1.660156 2.167969-2.660156 4.863282-2.660156 7.785156v5.09375c0 7.078126 5.789062 12.871094 12.867188 12.871094h75.0625c7.078124 0 12.867187-5.792968 12.867187-12.871094v-5.09375c0-2.921874-1-5.617187-2.660156-7.785156-2.355469 3.078125-6.054688 5.078125-10.207031 5.078125zm0 0" fill="#6fb1ff"/><g fill="#576574"><path d="m256.835938 42.816406c-4.144532 0-7.5 3.359375-7.5 7.5v20.378906c0 4.140626 3.355468 7.5 7.5 7.5 4.140624 0 7.5-3.359374 7.5-7.5v-20.378906c0-4.140625-3.359376-7.5-7.5-7.5zm0 0"/><path d="m160.253906 74.183594c-2.070312-3.585938-6.65625-4.816406-10.246094-2.742188-3.585937 2.070313-4.816406 6.65625-2.742187 10.246094l10.1875 17.644531c2.074219 3.59375 6.664063 4.816407 10.246094 2.746094 3.585937-2.070313 4.816406-6.660156 2.746093-10.246094zm0 0"/><path d="m74.554688 159.886719 17.644531 10.191406c3.589843 2.070313 8.175781.839844 10.246093-2.746094 2.070313-3.589843.84375-8.175781-2.746093-10.246093l-17.644531-10.1875c-3.589844-2.074219-8.175782-.84375-10.246094 2.742187-2.070313 3.589844-.84375 8.175781 2.746094 10.246094zm0 0"/><path d="m439.117188 353.046875-17.644532-10.1875c-3.589844-2.074219-8.175781-.84375-10.246094 2.746094-2.074218 3.585937-.84375 8.171875 2.742188 10.242187 19.0625 11.007813 18.726562 11.199219 21.394531 11.199219 7.617188 0 10.394531-10.164063 3.753907-14zm0 0"/><path d="m78.5625 256.46875c0-4.144531-3.359375-7.5-7.5-7.5h-20.378906c-4.140625 0-7.5 3.355469-7.5 7.5 0 4.140625 3.359375 7.5 7.5 7.5h20.378906c4.140625 0 7.5-3.359375 7.5-7.5zm0 0"/><path d="m462.988281 248.96875h-20.378906c-4.140625 0-7.5 3.355469-7.5 7.5 0 4.140625 3.359375 7.5 7.5 7.5h20.378906c4.140625 0 7.5-3.359375 7.5-7.5 0-4.144531-3.359375-7.5-7.5-7.5zm0 0"/><path d="m92.199219 342.859375-17.644531 10.1875c-3.589844 2.074219-4.816407 6.660156-2.746094 10.246094 2.070312 3.589843 6.65625 4.816406 10.246094 2.746093l17.644531-10.191406c3.589843-2.070312 4.816406-6.65625 2.746093-10.242187-2.070312-3.589844-6.660156-4.816407-10.246093-2.746094zm0 0"/><path d="m421.46875 170.078125 17.648438-10.191406c3.585937-2.070313 4.816406-6.65625 2.746093-10.246094-2.070312-3.585937-6.660156-4.816406-10.246093-2.742187l-17.648438 10.1875c-3.585938 2.070312-4.816406 6.65625-2.746094 10.246093 2.074219 3.585938 6.660156 4.816407 10.246094 2.746094zm0 0"/><path d="m363.660156 71.441406c-3.585937-2.074218-8.171875-.84375-10.246094 2.742188l-10.1875 17.648437c-2.070312 3.585938-.839843 8.175781 2.746094 10.246094 3.585938 2.070313 8.175782.84375 10.246094-2.746094l10.1875-17.644531c2.070312-3.589844.839844-8.175781-2.746094-10.246094zm0 0"/></g><path d="m261.121094 123.089844c-.679688-5.089844-7.894532-5.089844-8.570313 0l-17.128906 128.78125c3-9.132813 11.445313-15.726563 21.414063-15.726563s18.410156 6.589844 21.410156 15.726563zm0 0" fill="#e4eaf8"/><path d="m268.128906 175.8125-7.007812-52.722656c-.679688-5.089844-7.894532-5.089844-8.570313 0l-17.128906 128.78125c3-9.132813 11.445313-15.726563 21.414063-15.726563 1.101562 0 2.179687.09375 3.238281.25zm0 0" fill="#d8dce5"/><path d="m256.835938 470.121094c-117.808594 0-213.652344-95.84375-213.652344-213.652344s95.84375-213.652344 213.652344-213.652344c117.808593 0 213.652343 95.84375 213.652343 213.652344s-95.84375 213.652344-213.652343 213.652344zm0-412.304688c-109.539063 0-198.652344 89.117188-198.652344 198.652344s89.113281 198.652344 198.652344 198.652344c109.535156 0 198.648437-89.117188 198.648437-198.652344 0-109.539062-89.113281-198.652344-198.648437-198.652344zm0 0" fill="#e59d1f"/><path d="m279.425781 256.46875c0 12.476562-10.113281 22.589844-22.589843 22.589844-12.476563 0-22.59375-10.113282-22.59375-22.589844s10.117187-22.59375 22.59375-22.59375c12.476562 0 22.589843 10.117188 22.589843 22.59375zm0 0" fill="#576574"/><path d="m264.246094 256.46875c0-6.71875 2.933594-12.75 7.589844-16.886719-3.992188-3.546875-9.242188-5.707031-15-5.707031-12.476563 0-22.59375 10.117188-22.59375 22.59375s10.117187 22.589844 22.59375 22.589844c5.757812 0 11.007812-2.15625 15-5.703125-4.652344-4.140625-7.589844-10.167969-7.589844-16.886719zm0 0" fill="#3e4b5a"/><path d="m505.335938 256.46875c0 137.242188-111.257813 248.496094-248.5 248.496094-137.242188 0-248.5-111.253906-248.5-248.496094s111.257812-248.5 248.5-248.5c137.242187 0 248.5 111.257812 248.5 248.5zm0 0" fill="#e4eaf8"/><path d="m38.597656 256.46875c0-132.160156 103.171875-240.207031 233.367188-248.027344-5.003906-.300781-10.046875-.472656-15.128906-.472656-137.242188 0-248.5 111.257812-248.5 248.5s111.257812 248.496094 248.5 248.496094c5.082031 0 10.125-.167969 15.128906-.46875-130.195313-7.824219-233.367188-115.867188-233.367188-248.027344zm0 0" fill="#d8dce5"/><path d="m462.988281 256.46875c0 113.851562-92.300781 206.148438-206.152343 206.148438-113.855469 0-206.152344-92.296876-206.152344-206.148438 0-113.855469 92.296875-206.152344 206.152344-206.152344 113.851562 0 206.152343 92.296875 206.152343 206.152344zm0 0" fill="#feca57"/><path d="m88.375 256.46875c0-107.5 82.285156-195.765625 187.304688-205.285156-6.207032-.566406-12.488282-.867188-18.84375-.867188-113.855469 0-206.152344 92.296875-206.152344 206.152344 0 113.851562 92.296875 206.148438 206.152344 206.148438 6.355468 0 12.636718-.300782 18.84375-.863282-105.019532-9.519531-187.304688-97.785156-187.304688-205.285156zm0 0" fill="#f4b537"/><path d="m294.367188 342.109375h-75.0625c-7.078126 0-12.867188 5.792969-12.867188 12.867187v5.09375c0 7.078126 5.789062 12.871094 12.867188 12.871094h75.0625c7.078124 0 12.867187-5.792968 12.867187-12.871094v-5.09375c0-7.074218-5.792969-12.867187-12.867187-12.867187zm0 0" fill="#8ac2ff"/><path d="m294.367188 352.269531h-75.0625c-4.152344 0-7.851563-2-10.207032-5.078125-1.660156 2.167969-2.660156 4.863282-2.660156 7.785156v5.09375c0 7.078126 5.789062 12.871094 12.867188 12.871094h75.0625c7.078124 0 12.867187-5.792968 12.867187-12.871094v-5.09375c0-2.921874-1-5.617187-2.660156-7.785156-2.355469 3.078125-6.054688 5.078125-10.207031 5.078125zm0 0" fill="#6fb1ff"/><path d="m261.121094 123.089844c-.679688-5.089844-7.894532-5.089844-8.570313 0l-17.128906 128.78125c3-9.132813 11.445313-15.726563 21.414063-15.726563s18.410156 6.589844 21.410156 15.726563zm0 0" fill="#e4eaf8"/><path d="m268.128906 175.8125-7.007812-52.722656c-.679688-5.089844-7.894532-5.089844-8.570313 0l-17.128906 128.78125c3-9.132813 11.445313-15.726563 21.414063-15.726563 1.101562 0 2.179687.09375 3.238281.25zm0 0" fill="#d8dce5"/><path d="m279.425781 256.46875c0 12.476562-10.113281 22.589844-22.589843 22.589844-12.476563 0-22.59375-10.113282-22.59375-22.589844s10.117187-22.59375 22.59375-22.59375c12.476562 0 22.589843 10.117188 22.589843 22.59375zm0 0" fill="#576574"/><path d="m264.246094 256.46875c0-6.71875 2.933594-12.75 7.589844-16.886719-3.992188-3.546875-9.242188-5.707031-15-5.707031-12.476563 0-22.59375 10.117188-22.59375 22.59375s10.117187 22.589844 22.59375 22.589844c5.757812 0 11.007812-2.15625 15-5.703125-4.652344-4.140625-7.589844-10.167969-7.589844-16.886719zm0 0" fill="#3e4b5a"/><path d="m256.5 42.347656c-118.085938 0-213.652344 95.558594-213.652344 213.652344 0 118.085938 95.554688 213.652344 213.652344 213.652344 117.550781 0 213.652344-95.609375 213.652344-213.652344 0-117.261719-95.054688-213.652344-213.652344-213.652344zm198.492188 206.152344h-12.71875c-4.144532 0-7.5 3.355469-7.5 7.5 0 4.140625 3.355468 7.5 7.5 7.5h12.71875c-1.144532 30.6875-9.28125 59.617188-22.863282 85.238281l-10.996094-6.347656c-3.585937-2.070313-8.175781-.84375-10.246093 2.746094-2.070313 3.585937-.839844 8.171875 2.746093 10.246093l10.972657 6.335938c-35.210938 55.789062-97.398438 92.933594-168.105469 92.933594-70.710938 0-132.898438-37.144532-168.109375-92.933594l10.972656-6.335938c3.589844-2.074218 4.816407-6.660156 2.746094-10.246093-2.070313-3.589844-6.660156-4.816407-10.246094-2.746094l-10.992187 6.347656c-13.585938-25.621093-21.722656-54.550781-22.867188-85.238281h12.722656c4.140626 0 7.5-3.359375 7.5-7.5 0-4.144531-3.359374-7.5-7.5-7.5h-12.722656c1.144532-30.691406 9.28125-59.617188 22.867188-85.238281l10.992187 6.347656c3.59375 2.070313 8.179688.835937 10.246094-2.746094 2.070313-3.585937.84375-8.175781-2.746094-10.246093l-10.972656-6.335938c15.875-25.15625 37.234375-46.515625 62.390625-62.390625l6.335938 10.972656c2.074218 3.59375 6.664062 4.816407 10.246093 2.746094 3.585938-2.070313 4.816407-6.65625 2.746094-10.246094l-6.347656-10.992187c25.621093-13.585938 54.546875-21.722656 85.238281-22.867188v12.722656c0 4.140626 3.355469 7.5 7.5 7.5 4.140625 0 7.5-3.359374 7.5-7.5v-12.722656c30.6875 1.144532 59.617188 9.28125 85.238281 22.867188l-6.347656 10.992187c-2.070313 3.589844-.84375 8.175781 2.746094 10.246094 3.582031 2.070313 8.171875.847656 10.246093-2.746094l6.332032-10.972656c25.15625 15.875 46.515625 37.234375 62.390625 62.390625l-10.972657 6.335938c-3.585937 2.070312-4.816406 6.660156-2.746093 10.246093 2.074219 3.589844 6.664062 4.816407 10.246093 2.746094l10.996094-6.347656c13.582032 25.621093 21.71875 54.546875 22.863282 85.238281zm0 0"/><path d="m256.5 286.089844c16.59375 0 30.089844-13.496094 30.089844-30.089844 0-3.105469-.472656-6.101562-1.347656-8.921875l-17.027344-125.539063c-.804688-5.929687-5.730469-10.234374-11.714844-10.234374s-10.914062 4.304687-11.71875 10.234374l-17.023438 125.539063c-.878906 2.820313-1.351562 5.816406-1.351562 8.921875 0 16.59375 13.5 30.089844 30.09375 30.089844zm0-139.320313 11.015625 81.222657c-6.953125-2.734376-14.867187-2.816407-22.03125 0zm0 94.140625c8.339844 0 15.089844 6.828125 15.089844 15.089844 0 8.320312-6.769532 15.089844-15.089844 15.089844s-15.09375-6.769532-15.09375-15.089844c.003906-8.15625 6.664062-15.089844 15.09375-15.089844zm0 0"/><path d="m294.03125 334.140625h-75.0625c-11.230469 0-20.367188 9.136719-20.367188 20.367187v5.09375c0 11.230469 9.136719 20.371094 20.367188 20.371094h20.027344c4.144531 0 7.503906-3.359375 7.503906-7.503906 0-4.140625-3.359375-7.5-7.503906-7.5h-20.027344c-2.960938 0-5.367188-2.40625-5.367188-5.367188v-5.09375c0-2.957031 2.40625-5.367187 5.367188-5.367187h75.0625c2.960938 0 5.367188 2.410156 5.367188 5.367187v5.09375c0 2.960938-2.40625 5.367188-5.367188 5.367188h-20.03125c-4.140625 0-7.5 3.359375-7.5 7.5 0 4.144531 3.359375 7.503906 7.5 7.503906h20.03125c11.230469 0 20.367188-9.136718 20.367188-20.371094v-5.09375c0-11.230468-9.136719-20.367187-20.367188-20.367187zm0 0"/><path d="m504.898438 245.984375c4.128906-.289063 7.246093-3.871094 6.960937-8.003906-9.28125-133.425781-120.417969-237.980469-255.359375-237.980469-141.492188 0-256 114.496094-256 256 0 141.492188 114.496094 256 256 256 134.839844 0 246.066406-104.46875 255.359375-237.976562.285156-4.132813-2.828125-7.714844-6.960937-8.003907-4.113282-.28125-7.71875 2.832031-8.003907 6.964844-8.742187 125.613281-114.339843 224.011719-240.394531 224.011719-132.886719 0-241-108.109375-241-240.996094s108.113281-241 241-241c126.0625 0 231.65625 98.402344 240.394531 224.023438.285157 4.132812 3.882813 7.246093 8.003907 6.960937zm0 0"/></svg>